<?xml version="1.0" encoding="UTF-8" standalone="no"?>
<svg
   xmlns:dc="http://purl.org/dc/elements/1.1/"
   xmlns:cc="http://creativecommons.org/ns#"
   xmlns:rdf="http://www.w3.org/1999/02/22-rdf-syntax-ns#"
   xmlns:svg="http://www.w3.org/2000/svg"
   xmlns="http://www.w3.org/2000/svg"
   id="svg8"
   version="1.1"
   viewBox="0 0 108.47916 13.229167"
   height="50"
   width="410">
  <defs
     id="defs2" />
  <metadata
     id="metadata5">
    <rdf:RDF>
      <cc:Work
         rdf:about="">
        <dc:format>image/svg+xml</dc:format>
        <dc:type
           rdf:resource="http://purl.org/dc/dcmitype/StillImage" />
        <dc:title></dc:title>
      </cc:Work>
    </rdf:RDF>
  </metadata>
  <g
     transform="translate(0,-283.77081)"
     id="layer1">
    <text
       id="text881-4"
       y="152.00629"
       x="117.08411"
       style="font-style:normal;font-weight:normal;font-size:10.58333302px;line-height:1.25;font-family:sans-serif;letter-spacing:0px;word-spacing:0px;fill:#000000;fill-opacity:1;stroke:#000000;stroke-width:0.2;stroke-miterlimit:4;stroke-dasharray:none;stroke-opacity:1"
       xml:space="preserve"><tspan
         style="font-style:normal;font-variant:normal;font-weight:normal;font-stretch:normal;font-family:Calibri;-inkscape-font-specification:Calibri;letter-spacing:0.39687499px;stroke:#000000;stroke-width:0.2;stroke-miterlimit:4;stroke-dasharray:none;stroke-opacity:1"
         y="161.37006"
         x="117.08411"
         id="tspan879-85" /></text>
    <g
       transform="translate(8.740877,-3.2574704)"
       id="g828">
      <rect
         style="opacity:1;fill:#ffffff;fill-opacity:0.79611655;stroke:#999999;stroke-width:1.11545897;stroke-linecap:square;stroke-linejoin:miter;stroke-miterlimit:4;stroke-dasharray:none;stroke-opacity:1"
         id="rect815"
         width="106.5108"
         height="11.83248"
         x="-7.7566953"
         y="287.72662"
         ry="5.9162402" />
      <rect
         style="opacity:1;fill:#ffda00;fill-opacity:1;stroke:none;stroke-width:1.33680475;stroke-linecap:square;stroke-linejoin:miter;stroke-miterlimit:4;stroke-dasharray:none;stroke-opacity:1"
         id="rect815-8"
         width="66.189713"
         height="10.767655"
         x="-7.2507939"
         y="288.25903"
         ry="5.3838277" />
      <path
         style="font-style:normal;font-weight:normal;font-size:40px;line-height:1.25;font-family:sans-serif;letter-spacing:0px;word-spacing:0px;fill:#ffda00;fill-opacity:1;stroke:#999999;stroke-width:0.96566576"
         id="path825-3"
         d="m 88.101072,297.66492 q -0.58736,-0.54846 -1.51576,-1.82821 -1.26944,1.82821 -2.38732,2.63567 -1.40208,0.97505 -3.58098,0.97505 -2.55784,0 -4.24412,-1.53875 -1.78102,-1.61492 -1.78102,-4.28106 0,-2.5595 1.78102,-4.29629 1.59154,-1.53875 4.28201,-1.53875 1.38313,0 2.40627,0.45705 1.19366,0.50276 2.00838,1.37116 0.75788,0.77699 1.51576,1.82821 1.26945,-1.82821 2.38732,-2.63567 1.40208,-0.97504 3.58099,-0.97504 2.55783,0 4.24412,1.53874 1.78101,1.61492 1.78101,4.28106 0,2.5595 -1.78101,4.2963 -1.59155,1.53874 -4.28203,1.53874 -1.38312,0 -2.40626,-0.45704 -1.02313,-0.41136 -2.00838,-1.37117 z m -7.69248,-0.21328 q 3.12626,0 5.002,-3.65643 -2.40625,-3.9916 -5.002,-3.9916 -1.89469,0 -2.86099,1.09693 -1.04208,1.1731 -1.04208,2.72708 0,1.70633 1.04208,2.75756 1.06103,1.06646 2.86099,1.06646 z m 12.35344,-7.61756 q -2.82311,0 -5.002,3.65643 2.38732,3.99159 5.002,3.99159 1.89469,0 2.861,-1.09692 1.04208,-1.17311 1.04208,-2.72709 0,-1.70633 -1.04208,-2.75755 -1.06104,-1.06646 -2.861,-1.06646 z" />
      <text
         xml:space="preserve"
         style="font-style:normal;font-weight:normal;font-size:10.58333302px;line-height:1.25;font-family:sans-serif;letter-spacing:0px;word-spacing:0px;fill:#999999;fill-opacity:1;stroke:#999999;stroke-width:0.2;stroke-miterlimit:4;stroke-dasharray:none;stroke-opacity:1"
         x="-4.651978"
         y="296.98633"
         id="text881"><tspan
           id="tspan879"
           x="-4.651978"
           y="296.98633"
           style="font-style:normal;font-variant:normal;font-weight:normal;font-stretch:normal;font-family:Calibri;-inkscape-font-specification:Calibri;letter-spacing:0.39687499px;fill:#999999;stroke:#999999;stroke-width:0.2;stroke-miterlimit:4;stroke-dasharray:none;stroke-opacity:1">PROGRESSUS</tspan></text>
      <text
         xml:space="preserve"
         style="font-style:normal;font-weight:normal;font-size:10.58333302px;line-height:1.25;font-family:sans-serif;letter-spacing:0px;word-spacing:0px;fill:#ffda00;fill-opacity:1;stroke:#ffda00;stroke-width:0.2;stroke-miterlimit:4;stroke-dasharray:none;stroke-opacity:1"
         x="60.247269"
         y="296.98633"
         id="text881-9"><tspan
           id="tspan879-6"
           x="60.247269"
           y="296.98633"
           style="font-style:normal;font-variant:normal;font-weight:normal;font-stretch:normal;font-family:Calibri;-inkscape-font-specification:Calibri;letter-spacing:0.39687499px;fill:#ffda00;fill-opacity:1;stroke:#ffda00;stroke-width:0.2;stroke-miterlimit:4;stroke-dasharray:none;stroke-opacity:1">AD</tspan></text>
    </g>
  </g>
</svg>
